<svg width="13" height="13" viewBox="0 0 13 13" fill="none" xmlns="http://www.w3.org/2000/svg">
<path d="M11.5 8.6875C10.7188 8.6875 9.96875 8.5625 9.26875 8.33125C9.05 8.2625 8.80625 8.3125 8.63125 8.48125L7.25625 9.85625C5.4875 8.95625 4.0375 7.5125 3.1375 5.7375L4.5125 4.35625C4.6875 4.19375 4.7375 3.95 4.66875 3.73125C4.4375 3.03125 4.3125 2.28125 4.3125 1.5C4.3125 1.15625 4.03125 0.875 3.6875 0.875H1.5C1.15625 0.875 0.875 1.15625 0.875 1.5C0.875 7.36875 5.63125 12.125 11.5 12.125C11.8438 12.125 12.125 11.8438 12.125 11.5V9.3125C12.125 8.96875 11.8438 8.6875 11.5 8.6875ZM10.875 6.5H12.125C12.125 3.39375 9.60625 0.875 6.5 0.875V2.125C8.91875 2.125 10.875 4.08125 10.875 6.5ZM8.375 6.5H9.625C9.625 4.775 8.225 3.375 6.5 3.375V4.625C7.5375 4.625 8.375 5.4625 8.375 6.5Z" fill="#1B1D1F"/>
</svg>
