<svg width="28" height="28" viewBox="0 0 28 28" fill="none" xmlns="http://www.w3.org/2000/svg">
<path d="M14.1641 3.5C7.71996 3.40569 2.55033 9.17524 3.63677 15.7773C4.37344 20.2577 8.05446 23.7837 12.5508 24.3906C15.5826 24.8 18.4169 23.9252 20.5625 22.2031L19.4688 20.8359C17.6787 22.2726 15.3238 23.0128 12.7696 22.668C9.0462 22.1654 5.99585 19.2083 5.38677 15.5039C4.46945 9.9295 8.74217 5.17105 14.1368 5.25C18.7347 5.31743 22.6104 9.13064 22.75 13.7266C22.7531 13.825 22.75 13.9208 22.75 14.0273C22.743 15.9549 21.1821 17.5007 19.25 17.5C18.2727 17.4994 17.5 16.7263 17.5 15.75V15.3125V12.6875V8.75H15.75V9.43359C15.1213 9.00776 14.3741 8.75 13.5625 8.75C11.3983 8.75 9.62505 10.5232 9.62505 12.6875V15.3125C9.62505 17.4768 11.3983 19.25 13.5625 19.25C14.742 19.25 15.7922 18.7123 16.5157 17.8828C17.1583 18.7002 18.1377 19.2493 19.25 19.25C22.1235 19.251 24.4896 16.9053 24.5 14.0273C24.5 13.9116 24.504 13.7974 24.5 13.6719C24.3317 8.12829 19.7092 3.58132 14.1641 3.5ZM13.5625 10.5C14.781 10.5 15.75 11.469 15.75 12.6875V15.3125C15.75 16.531 14.781 17.5 13.5625 17.5C12.3441 17.5 11.375 16.531 11.375 15.3125V12.6875C11.375 11.469 12.3441 10.5 13.5625 10.5Z" fill="white"/>
</svg>
